<svg version="1" xmlns="http://www.w3.org/2000/svg" width="346.667" height="346.667" viewBox="0 0 260.000000 260.000000"><path d="M36 35v12h38.1l-.3 35.4c-.3 34-.4 35.6-2.4 38.2-5.6 7.5-13.3 9.2-22.7 5-3.2-1.4-7.7-4.1-10.1-6.1l-4.4-3.6-7.2 10-7.1 10 3.6 3.3c6.1 5.4 13.6 9.7 20.5 11.9 8.2 2.5 22.3 2.7 30.2.4 11-3.2 21-12.2 24.9-22.4 3.2-8.7 3.9-19.2 3.9-64.4V23H36v12zM138 172v65h95v-25h-10.7c-6 0-20.9-.2-33.3-.3l-22.5-.2-.3-13.7-.3-13.8H195c22.5 0 29-.3 29.1-1.3.1-1.7.1-19.9 0-21.5-.1-.9-6.6-1.2-29.1-1.2h-29v-28h65v-25h-93v65z"/></svg>