<?xml version="1.0" encoding="utf-8"?>
<!-- Generator: Adobe Illustrator 22.0.1, SVG Export Plug-In . SVG Version: 6.00 Build 0)  -->
<svg version="1.1" id="Layer_1" xmlns="http://www.w3.org/2000/svg" xmlns:xlink="http://www.w3.org/1999/xlink" x="0px" y="0px"
	 viewBox="0 0 962.7 328" style="enable-background:new 0 0 962.7 328;" xml:space="preserve">
<style type="text/css">
	.st0{fill:#2ecaaf;}
</style>
<g>
	<g>
		<g>
			<path class="st0" d="M873.9,232.4c-7.5,0-13.7-6.1-13.7-13.7s6.1-13.7,13.7-13.7s13.7,6.1,13.7,13.7S881.4,232.4,873.9,232.4z
				 M873.9,211.4c-4,0-7.3,3.3-7.3,7.3c0,4,3.3,7.3,7.3,7.3s7.3-3.3,7.3-7.3C881.2,214.7,877.9,211.4,873.9,211.4z"/>
		</g>
	</g>
	<g>
		<path class="st0" d="M142.9,97.3c-39,0-66.2,27.7-66.2,67.4c0,19.7,6.3,36.5,18.2,48.7c12.3,12.6,29.8,19.2,50.5,19.2
			c18,0,31.5-3.6,47.3-8.2l5.8-1.7l-5.3-26.7l-6.8,1.7c-16,4.1-27.1,6.2-40.5,6.2c-18.6,0-31.8-9.5-36.4-25.9h93.3l0.8-5.8
			c0.8-5.9,0.8-8.3,0.8-14v0C204.1,121.8,179.4,97.3,142.9,97.3z M175.1,151.4h-66.4c3.9-17,16.4-26.9,34.5-26.9
			C160.8,124.5,172.4,134.4,175.1,151.4z"/>
		<path class="st0" d="M314.4,202.2c-12.3,1.7-24.4,2.6-36,2.6c-17.7,0-26.4-9.4-26.4-28.8V101h-30.2v78.1c0,34,19.4,53.5,53.3,53.5
			c22.6,0,47.8-2.5,64.3-6.4l5.1-1.2V101h-30.2V202.2z"/>
		<path class="st0" d="M377.7,104.4l-5.5,1V229h30.2V130c14.5-1.5,26.8-1.8,40.2-1.8h6.7V98.3h-6.7
			C422,98.3,400.2,100.3,377.7,104.4z"/>
		<path class="st0" d="M519.3,97.3c-39,0-66.2,27.7-66.2,67.4c0,19.7,6.3,36.5,18.2,48.7c12.3,12.6,29.8,19.2,50.5,19.2
			c18,0,31.5-3.6,47.3-8.2l5.8-1.7l-5.3-26.7l-6.8,1.7c-16,4.1-27.1,6.2-40.5,6.2c-18.6,0-31.8-9.5-36.4-25.9h93.3l0.8-5.8
			c0.8-5.9,0.8-8.3,0.8-14v0C580.5,121.8,555.8,97.3,519.3,97.3z M551.5,151.4h-66.4c3.9-17,16.4-26.9,34.5-26.9
			C537.3,124.5,548.8,134.4,551.5,151.4z"/>
		<path class="st0" d="M700,198.3c-14.6,3.8-29.2,6.2-38,6.2c-23.6,0-39.5-16-39.5-39.7c0-24.3,16.3-40,41.5-40
			c9.2,0,21.6,1.8,34.1,5l6.9,1.8l4.8-26.3l-5.4-1.8c-11.7-4-27.9-6.6-41.3-6.6c-42.4,0-70.9,27.2-70.9,67.7
			c0,20,6.8,37.1,19.5,49.5c12.6,12.2,29.9,18.7,49.9,18.7c13,0,30.2-2.9,44.9-7.5l5.7-1.8l-5.2-26.9L700,198.3z"/>
		<path class="st0" d="M842.1,103.6c-22.1-4.3-36.8-6.3-60.1-6.3c-39,0-64.4,26.4-64.7,67.2c0,40.8,25.6,68.2,63.7,68.2
			c13,0,24.3-2.7,36.3-8.9v5.2h30.2V104.7L842.1,103.6z M747.5,165c0-25.3,13.4-39.7,36.8-39.7c11.3,0,21.2,0.7,33.1,2.3v66.3
			c-12.4,7.7-22.5,10.9-34.3,10.9C761.5,204.8,747.5,189.1,747.5,165z"/>
	</g>
</g>
</svg>
