<?xml version="1.0" encoding="UTF-8"?>
<svg width="1179.6" height="261.49" version="1.1" viewBox="0 0 1179.5925 261.48835" xml:space="preserve" xmlns="http://www.w3.org/2000/svg" xmlns:cc="http://creativecommons.org/ns#" xmlns:dc="http://purl.org/dc/elements/1.1/" xmlns:osb="http://www.openswatchbook.org/uri/2009/osb" xmlns:rdf="http://www.w3.org/1999/02/22-rdf-syntax-ns#" xmlns:xlink="http://www.w3.org/1999/xlink"><metadata><rdf:RDF><cc:Work rdf:about=""><dc:format>image/svg+xml</dc:format><dc:type rdf:resource="http://purl.org/dc/dcmitype/StillImage"/><dc:title/></cc:Work></rdf:RDF></metadata><defs><linearGradient id="a" x1="3.6349" x2="443.46" y1="-52.357" y2="-52.357" gradientTransform="translate(1.5752 -738.54)" gradientUnits="userSpaceOnUse"><stop stop-color="#b2b2b2" offset="0"/></linearGradient></defs><g transform="matrix(1.3333 0 0 -1.3333 -6.9469 1125.8)"><g transform="scale(1,-1)" fill="url(#a)" aria-label="Junior"><path d="m17.233-817.53v-18.734h50.889v63.751q0 17.476-9.0874 26.144-8.9476 8.668-23.068 8.668-17.616 0-30.757-13.561l11.324-15.658q8.8078 9.5068 18.454 9.5068 4.6136 0 7.8291-3.4951 3.3553-3.635 3.3553-10.765v-45.856z"/><path d="m133.27-773.21v-40.544h21.111v75.215h-21.111v-9.9262q-7.8291 11.045-20.272 11.045-12.303 0-20.691-7.6893-8.3883-7.8291-8.3883-23.068v-45.577h21.111v40.963q0 17.336 12.722 17.336 6.2912 0 10.905-4.4738 4.6136-4.6136 4.6136-13.282z"/><path d="m198-780.48v41.942h-20.971v-75.215h20.971v8.3883q9.5068-9.6466 21.39-9.6466 11.883 0 19.852 8.3883 8.1087 8.3883 8.1087 22.369v45.716h-20.971v-42.501q0-17.336-12.722-17.336-6.2912 0-11.045 4.6136-4.6136 4.4738-4.6136 13.282z"/><path d="m291.67-738.54h-20.971v-75.215h20.971zm-19.293-84.722q-3.4951-3.6349-3.4951-8.8078t3.4951-8.668q3.6349-3.635 8.8078-3.635t8.668 3.635q3.6349 3.4951 3.6349 8.668t-3.6349 8.8078q-3.4951 3.4951-8.668 3.4951t-8.8078-3.4951z"/><path d="m329.7-776.15q0 9.2272 5.1728 15.099 5.3126 5.732 13.421 5.732 8.2485 0 13.421-5.732 5.3126-5.8718 5.3126-15.099t-5.3126-15.099q-5.1728-5.8718-13.421-5.8718-8.1087 0-13.421 5.8718-5.1728 5.8718-5.1728 15.099zm58.439 0q0 16.357-11.324 27.542-11.324 11.184-28.52 11.184-17.056 0-28.381-11.184-11.324-11.184-11.324-27.542 0-16.357 11.324-27.542 11.324-11.324 28.381-11.324 17.196 0 28.52 11.324 11.324 11.184 11.324 27.542z"/><path d="m440.98-795.3q-9.367 0-13.981 6.7107-4.6136 6.5709-4.6136 17.476v32.575h-20.971v-75.215h20.971v9.9262q4.0544-4.6136 10.066-7.8291 6.1514-3.2155 12.443-3.3553l0.13981 19.713z"/></g><g transform="scale(1,-1)" fill="#787878" aria-label="Enterprises"><path d="m164.5-773.11v19.433h-48.652v20.132h43.759v18.594h-43.759v20.272h50.19v19.293h-72v-97.724z"/><path d="m206.3-717.32v41.942h-20.971v-75.215h20.971v8.3883q9.5068-9.6466 21.39-9.6466t19.852 8.3883q8.1087 8.3883 8.1087 22.369v45.716h-20.971v-42.501q0-17.336-12.722-17.336-6.2912 0-11.045 4.6136-4.6136 4.4738-4.6136 13.282z"/><path d="m304.02-735.5v33.693q0 4.334 2.2369 6.8505 2.2369 2.3767 5.3126 2.3767 5.8718 0 9.9262-5.3126l7.8291 14.68q-9.7864 8.9476-20.691 8.9476-10.765 0-18.315-7.1301-7.4097-7.1301-7.4097-19.433v-34.672h-8.8078v-15.099h8.8078v-22.509h21.111v22.509h18.175v15.099z"/><path d="m403.15-686.29q-12.722 12.023-29.918 12.023-17.056 0-28.241-10.485-11.184-10.625-11.184-28.381 0-17.755 11.324-28.241 11.464-10.485 26.982-10.485 15.518 0 26.283 9.367 10.905 9.367 10.905 25.724v11.184h-54.804q0.97864 6.1514 6.4311 10.066 5.4524 3.9146 12.303 3.9146 11.045 0 18.175-7.4097zm-15.099-34.252q-0.69902-6.7107-5.033-10.346-4.334-3.6349-10.625-3.6349-6.1514 0-11.324 3.7748-5.1728 3.7748-6.0116 10.206z"/><path d="m461.02-732.14q-9.367 0-13.981 6.7107-4.6136 6.5709-4.6136 17.476v32.575h-20.971v-75.215h20.971v9.9262q4.0544-4.6136 10.066-7.8291 6.1514-3.2155 12.443-3.3553l0.1398 19.713z"/><path d="m523.38-751.86q13.142 0 23.348 11.045 10.346 10.905 10.346 27.542t-10.346 27.821q-10.206 11.184-24.047 11.184-13.701 0-22.089-11.045v37.048h-20.971v-102.34h20.971v8.3883q9.6466-9.6466 22.788-9.6466zm-23.068 39.006q0 9.0874 5.033 14.959 5.1728 5.732 12.443 5.732 7.2699 0 12.722-5.732 5.4524-5.8718 5.4524-14.959 0-9.0874-5.3126-15.239-5.3126-6.1514-12.722-6.1514t-12.582 6.1514q-5.033 6.0116-5.033 15.239z"/><path d="m614.81-732.14q-9.367 0-13.981 6.7107-4.6136 6.5709-4.6136 17.476v32.575h-20.971v-75.215h20.971v9.9262q4.0544-4.6136 10.066-7.8291 6.1514-3.2155 12.443-3.3553l0.13981 19.713z"/><path d="m654.38-675.38h-20.971v-75.215h20.971zm-19.293-84.722q-3.4951-3.6349-3.4951-8.8078t3.4951-8.668q3.6349-3.6349 8.8078-3.6349t8.668 3.6349q3.6349 3.4951 3.6349 8.668t-3.6349 8.8078q-3.4951 3.4951-8.668 3.4951t-8.8078-3.4951z"/><path d="m730.98-698.73q0 11.045-8.2485 17.755-8.1087 6.7107-20.691 6.7107-8.3883 0-17.476-2.9359-9.0874-3.0757-16.357-8.9476l9.2272-13.142q11.744 9.0874 25.025 9.0874 4.0544 0 6.431-1.5379 2.3767-1.6777 2.3767-4.334t-3.3553-4.8932q-3.2155-2.2369-9.5068-4.1942-6.1514-1.9573-9.5068-3.3553-3.2155-1.398-7.4097-4.0544-8.5282-5.3126-8.5282-15.658 0-10.485 8.3883-17.056 8.3883-6.5709 21.67-6.5709t26.563 8.9476l-7.8291 13.981q-9.7864-6.7107-19.573-6.7107-9.6466 0-9.6466 5.3126 0 2.9359 3.0757 4.6136 3.0757 1.6777 10.206 3.9146 7.1301 2.2369 10.066 3.4951 3.0757 1.1184 7.2699 3.6349 7.8291 4.7534 7.8291 15.938z"/><path d="m812.15-686.29q-12.722 12.023-29.918 12.023-17.056 0-28.241-10.485-11.184-10.625-11.184-28.381 0-17.755 11.324-28.241 11.464-10.485 26.982-10.485 15.518 0 26.283 9.367 10.905 9.367 10.905 25.724v11.184h-54.804q0.97864 6.1514 6.4311 10.066 5.4524 3.9146 12.303 3.9146 11.045 0 18.175-7.4097zm-15.099-34.252q-0.69902-6.7107-5.033-10.346-4.334-3.6349-10.625-3.6349-6.1514 0-11.324 3.7748t-6.0116 10.206z"/><path d="m889.9-698.73q0 11.045-8.2485 17.755-8.1087 6.7107-20.691 6.7107-8.3883 0-17.476-2.9359-9.0874-3.0757-16.357-8.9476l9.2272-13.142q11.744 9.0874 25.025 9.0874 4.0544 0 6.4311-1.5379 2.3767-1.6777 2.3767-4.334t-3.3553-4.8932q-3.2155-2.2369-9.5068-4.1942-6.1514-1.9573-9.5068-3.3553-3.2155-1.398-7.4097-4.0544-8.5281-5.3126-8.5281-15.658 0-10.485 8.3883-17.056 8.3883-6.5709 21.67-6.5709 13.282 0 26.563 8.9476l-7.8291 13.981q-9.7864-6.7107-19.573-6.7107-9.6466 0-9.6466 5.3126 0 2.9359 3.0757 4.6136 3.0757 1.6777 10.206 3.9146 7.1301 2.2369 10.066 3.4951 3.0757 1.1184 7.2699 3.6349 7.8291 4.7534 7.8291 15.938z"/></g></g></svg>
